<?xml version="1.0" encoding="UTF-8"?>
<svg width="164px" height="31px" viewBox="0 0 164 31" version="1.1" xmlns="http://www.w3.org/2000/svg" xmlns:xlink="http://www.w3.org/1999/xlink">
    <title>medvind</title>
    <g id="Page-1" stroke="none" stroke-width="1" fill="none" fill-rule="evenodd">
        <path d="M6.748,30 L6.748,20.892 C6.748,19.908 6.826,19.11 6.982,18.498 C7.138,17.886 7.354,17.406 7.63,17.058 C7.906,16.71 8.224,16.476 8.584,16.356 C8.944,16.236 9.328,16.176 9.736,16.176 C10.216,16.176 10.636,16.242 10.996,16.374 C11.356,16.506 11.65,16.752 11.878,17.112 C12.106,17.472 12.28,17.958 12.4,18.57 C12.52,19.182 12.58,19.956 12.58,20.892 L12.58,20.892 L12.58,30 L19.096,30 L19.096,20.892 C19.096,17.844 20.14,16.32 22.228,16.32 C22.612,16.32 22.972,16.38 23.308,16.5 C23.644,16.62 23.938,16.848 24.19,17.184 C24.442,17.52 24.634,17.988 24.766,18.588 C24.898,19.188 24.964,19.956 24.964,20.892 L24.964,20.892 L24.964,30 L31.48,30 L31.48,18.012 C31.48,16.788 31.318,15.744 30.994,14.88 C30.67,14.016 30.232,13.314 29.68,12.774 C29.128,12.234 28.468,11.838 27.7,11.586 C26.932,11.334 26.116,11.208 25.252,11.208 C22.54,11.208 20.452,12.372 18.988,14.7 C17.548,12.396 15.46,11.244 12.724,11.244 C10.516,11.244 8.524,12.096 6.748,13.8 L6.748,13.8 L6.748,11.532 L0.232,11.532 L0.232,30 L6.748,30 Z M45.736,30.684 C50.824,30.684 54.004,28.572 55.276,24.348 L55.276,24.348 L48.976,24.348 C48.256,25.5 47.188,26.076 45.772,26.076 C43.132,26.076 41.812,24.672 41.812,21.864 L41.812,21.864 L55.528,21.864 L55.528,21.18 C55.528,19.572 55.3,18.126 54.844,16.842 C54.388,15.558 53.728,14.472 52.864,13.584 C52,12.696 50.944,12.018 49.696,11.55 C48.448,11.082 47.044,10.848 45.484,10.848 C43.9,10.848 42.478,11.082 41.218,11.55 C39.958,12.018 38.884,12.684 37.996,13.548 C37.108,14.412 36.424,15.462 35.944,16.698 C35.464,17.934 35.224,19.32 35.224,20.856 C35.224,22.344 35.476,23.688 35.98,24.888 C36.484,26.088 37.198,27.12 38.122,27.984 C39.046,28.848 40.156,29.514 41.452,29.982 C42.748,30.45 44.176,30.684 45.736,30.684 Z M49.444,18.084 L41.992,18.084 C42.16,17.124 42.562,16.38 43.198,15.852 C43.834,15.324 44.656,15.06 45.664,15.06 C46.624,15.06 47.44,15.336 48.112,15.888 C48.784,16.44 49.228,17.172 49.444,18.084 L49.444,18.084 Z M67.84,30.576 C70.216,30.576 72.1,29.7 73.492,27.948 L73.492,27.948 L73.492,30 L80.044,30 L80.044,0.12 L73.492,0.12 L73.492,13.368 C71.98,11.76 70.072,10.956 67.768,10.956 C66.4,10.956 65.146,11.214 64.006,11.73 C62.866,12.246 61.888,12.948 61.072,13.836 C60.256,14.724 59.626,15.762 59.182,16.95 C58.738,18.138 58.516,19.392 58.516,20.712 C58.516,22.104 58.75,23.4 59.218,24.6 C59.686,25.8 60.34,26.844 61.18,27.732 C62.02,28.62 63.004,29.316 64.132,29.82 C65.26,30.324 66.496,30.576 67.84,30.576 Z M69.496,24.96 C68.896,24.96 68.338,24.852 67.822,24.636 C67.306,24.42 66.862,24.12 66.49,23.736 C66.118,23.352 65.824,22.902 65.608,22.386 C65.392,21.87 65.284,21.312 65.284,20.712 C65.284,20.136 65.398,19.602 65.626,19.11 C65.854,18.618 66.154,18.18 66.526,17.796 C66.898,17.412 67.342,17.112 67.858,16.896 C68.374,16.68 68.92,16.572 69.496,16.572 C70.072,16.572 70.618,16.68 71.134,16.896 C71.65,17.112 72.094,17.412 72.466,17.796 C72.838,18.18 73.138,18.63 73.366,19.146 C73.594,19.662 73.708,20.208 73.708,20.784 C73.708,21.36 73.594,21.9 73.366,22.404 C73.138,22.908 72.838,23.352 72.466,23.736 C72.094,24.12 71.65,24.42 71.134,24.636 C70.618,24.852 70.072,24.96 69.496,24.96 Z M96.1,30 L105.712,11.532 L98.44,11.532 L93.976,21 L89.584,11.532 L82.24,11.532 L91.744,30 L96.1,30 Z M111.184,8.112 C111.688,8.112 112.162,8.016 112.606,7.824 C113.05,7.632 113.44,7.368 113.776,7.032 C114.112,6.696 114.376,6.306 114.568,5.862 C114.76,5.418 114.856,4.944 114.856,4.44 C114.856,3.936 114.76,3.462 114.568,3.018 C114.376,2.574 114.112,2.184 113.776,1.848 C113.44,1.512 113.05,1.248 112.606,1.056 C112.162,0.864 111.688,0.768 111.184,0.768 C110.68,0.768 110.206,0.864 109.762,1.056 C109.318,1.248 108.928,1.512 108.592,1.848 C108.256,2.184 107.992,2.574 107.8,3.018 C107.608,3.462 107.512,3.936 107.512,4.44 C107.512,4.944 107.608,5.418 107.8,5.862 C107.992,6.306 108.256,6.696 108.592,7.032 C108.928,7.368 109.318,7.632 109.762,7.824 C110.206,8.016 110.68,8.112 111.184,8.112 Z M114.46,30 L114.46,11.532 L107.944,11.532 L107.944,30 L114.46,30 Z M125.44,30 L125.44,20.136 C125.44,18.912 125.734,17.97 126.322,17.31 C126.91,16.65 127.756,16.32 128.86,16.32 C129.268,16.32 129.652,16.38 130.012,16.5 C130.372,16.62 130.696,16.824 130.984,17.112 C131.32,17.448 131.554,17.898 131.686,18.462 C131.818,19.026 131.884,19.764 131.884,20.676 L131.884,20.676 L131.884,30 L138.4,30 L138.4,18.264 C138.4,17.28 138.304,16.404 138.112,15.636 C137.92,14.868 137.56,14.172 137.032,13.548 C136.384,12.78 135.598,12.186 134.674,11.766 C133.75,11.346 132.64,11.136 131.344,11.136 C130.12,11.136 129.052,11.322 128.14,11.694 C127.228,12.066 126.328,12.792 125.44,13.872 L125.44,13.872 L125.44,11.532 L118.924,11.532 L118.924,30 L125.44,30 Z M151.432,30.576 C153.808,30.576 155.692,29.7 157.084,27.948 L157.084,27.948 L157.084,30 L163.636,30 L163.636,0.12 L157.084,0.12 L157.084,13.368 C155.572,11.76 153.664,10.956 151.36,10.956 C149.992,10.956 148.738,11.214 147.598,11.73 C146.458,12.246 145.48,12.948 144.664,13.836 C143.848,14.724 143.218,15.762 142.774,16.95 C142.33,18.138 142.108,19.392 142.108,20.712 C142.108,22.104 142.342,23.4 142.81,24.6 C143.278,25.8 143.932,26.844 144.772,27.732 C145.612,28.62 146.596,29.316 147.724,29.82 C148.852,30.324 150.088,30.576 151.432,30.576 Z M153.088,24.96 C152.488,24.96 151.93,24.852 151.414,24.636 C150.898,24.42 150.454,24.12 150.082,23.736 C149.71,23.352 149.416,22.902 149.2,22.386 C148.984,21.87 148.876,21.312 148.876,20.712 C148.876,20.136 148.99,19.602 149.218,19.11 C149.446,18.618 149.746,18.18 150.118,17.796 C150.49,17.412 150.934,17.112 151.45,16.896 C151.966,16.68 152.512,16.572 153.088,16.572 C153.664,16.572 154.21,16.68 154.726,16.896 C155.242,17.112 155.686,17.412 156.058,17.796 C156.43,18.18 156.73,18.63 156.958,19.146 C157.186,19.662 157.3,20.208 157.3,20.784 C157.3,21.36 157.186,21.9 156.958,22.404 C156.73,22.908 156.43,23.352 156.058,23.736 C155.686,24.12 155.242,24.42 154.726,24.636 C154.21,24.852 153.664,24.96 153.088,24.96 Z" id="medvind" fill="#f9f9f9" fill-rule="nonzero"></path>
    </g>
</svg>